<?xml version="1.0" encoding="UTF-8"?>
<svg width="52px" height="52px" viewBox="0 0 52 52" version="1.1" xmlns="http://www.w3.org/2000/svg" xmlns:xlink="http://www.w3.org/1999/xlink">
    <!-- Generator: Sketch 47 (45396) - http://www.bohemiancoding.com/sketch -->
    <title>Group</title>
    <desc>Created with Sketch.</desc>
    <defs></defs>
    <g id="mobil" stroke="none" stroke-width="1" fill="none" fill-rule="evenodd">
        <g id="musique" transform="translate(-209.000000, -558.000000)" fill-rule="nonzero" fill="#FFFFFF">
            <g transform="translate(209.000000, 309.000000)" id="-content">
                <g>
                    <g id="player" transform="translate(0.000000, 246.000000)">
                        <g id="play-button" transform="translate(0.000000, 3.000000)">
                            <g id="Group">
                                <g id="pause-button" transform="translate(15.000000, 11.000000)">
                                    <path d="M4.41094261,0 L2.91241151,0 C1.35088021,0 0.0805621917,1.27031802 0.0805621917,2.83184931 L0.0805621917,26.3452305 C0.0805621917,27.9067618 1.35088021,29.1771727 2.91241151,29.1771727 L4.41094261,29.1771727 C5.9724739,29.1771727 7.24288484,27.9067618 7.24288484,26.3452305 L7.24288484,2.83184931 C7.24279192,1.27031802 5.97238098,0 4.41094261,0 Z M5.94190301,26.3451376 C5.94190301,27.1893216 5.25503367,27.8761909 4.41084969,27.8761909 L2.91241151,27.8761909 C2.06822752,27.8761909 1.3814511,27.1893216 1.3814511,26.3451376 L1.3814511,2.83184931 C1.3814511,1.98766533 2.06822752,1.30088891 2.91241151,1.30088891 L4.41094261,1.30088891 C5.25512659,1.30088891 5.94199593,1.98766533 5.94199593,2.83184931 L5.94199593,26.3451376 L5.94190301,26.3451376 Z" id="Shape"></path>
                                    <path d="M18.0876523,0 L16.5891212,0 C15.0275899,0 13.757179,1.27031802 13.757179,2.83184931 L13.757179,26.3452305 C13.757179,27.9067618 15.0275899,29.1771727 16.5891212,29.1771727 L18.0876523,29.1771727 C19.6491836,29.1771727 20.9195016,27.9067618 20.9195016,26.3452305 L20.9195016,2.83184931 C20.9195016,1.27031802 19.6491836,0 18.0876523,0 Z M19.6186127,26.3451376 C19.6186127,27.1893216 18.9318363,27.8761909 18.0876523,27.8761909 L16.5891212,27.8761909 C15.7449372,27.8761909 15.0580679,27.1893216 15.0580679,26.3451376 L15.0580679,2.83184931 C15.0580679,1.98766533 15.7449372,1.30088891 16.5891212,1.30088891 L18.0876523,1.30088891 C18.9318363,1.30088891 19.6186127,1.98766533 19.6186127,2.83184931 L19.6186127,26.3451376 Z" id="Shape"></path>
                                </g>
                                <path d="M26,0 C11.6636,0 0,11.6636 0,26 C0,40.3364 11.6636,52 26,52 C40.3364,52 52,40.3364 52,26 C52,11.6636 40.3364,0 26,0 Z M26,50.2666667 C12.6195333,50.2666667 1.73333333,39.3804667 1.73333333,26 C1.73333333,12.6195333 12.6195333,1.73333333 26,1.73333333 C39.3804667,1.73333333 50.2666667,12.6195333 50.2666667,26 C50.2666667,39.3804667 39.3804667,50.2666667 26,50.2666667 Z" id="Shape"></path>
                            </g>
                        </g>
                    </g>
                </g>
            </g>
        </g>
    </g>
</svg>