<?xml version="1.0" encoding="UTF-8"?>
<svg width="52px" height="52px" viewBox="0 0 52 52" version="1.1" xmlns="http://www.w3.org/2000/svg" xmlns:xlink="http://www.w3.org/1999/xlink">
    <!-- Generator: Sketch 47 (45396) - http://www.bohemiancoding.com/sketch -->
    <title>play-button</title>
    <desc>Created with Sketch.</desc>
    <defs></defs>
    <g id="decline2" stroke="none" stroke-width="1" fill="none" fill-rule="evenodd">
        <g id="V3-Musique" transform="translate(-209.000000, -558.000000)" fill-rule="nonzero" fill="#FFFFFF">
            <g id="musique" transform="translate(209.000000, 309.000000)">
                <g id="-content">
                    <g id="player" transform="translate(0.000000, 246.000000)">
                        <g id="play-button" transform="translate(0.000000, 3.000000)">
                            <path d="M40.617625,26.2770143 L21.367625,13.1518042 C21.099,12.9698013 20.7525,12.949676 20.4655,13.1010534 C20.179375,13.2524308 20,13.5499356 20,13.8745658 L20,40.124986 C20,40.4496162 20.179375,40.747121 20.466375,40.8984984 C20.594125,40.9667495 20.735,41 20.875,41 C21.047375,41 21.21975,40.9483742 21.367625,40.8477476 L40.617625,27.7225375 C40.8565,27.5597849 41,27.2894055 41,26.9997759 C41,26.7101463 40.8565,26.4397669 40.617625,26.2770143 Z M21.75,38.4685845 L21.75,15.5309673 L38.571875,26.9997759 L21.75,38.4685845 Z" id="Shape"></path>
                            <path d="M26,0 C11.6636,0 0,11.6636 0,26 C0,40.3364 11.6636,52 26,52 C40.3364,52 52,40.3364 52,26 C52,11.6636 40.3364,0 26,0 Z M26,50.2666667 C12.6195333,50.2666667 1.73333333,39.3804667 1.73333333,26 C1.73333333,12.6195333 12.6195333,1.73333333 26,1.73333333 C39.3804667,1.73333333 50.2666667,12.6195333 50.2666667,26 C50.2666667,39.3804667 39.3804667,50.2666667 26,50.2666667 Z" id="Shape"></path>
                        </g>
                    </g>
                </g>
            </g>
        </g>
    </g>
</svg>